<!-- Generator: Adobe Illustrator 21.1.0, SVG Export Plug-In  -->
<svg version="1.1"
	 xmlns="http://www.w3.org/2000/svg" xmlns:xlink="http://www.w3.org/1999/xlink" xmlns:a="http://ns.adobe.com/AdobeSVGViewerExtensions/3.0/"
	 x="0px" y="0px" width="76.456px" height="115.819px" viewBox="0 0 76.456 115.819"
	 style="overflow:scroll;enable-background:new 0 0 76.456 115.819;" xml:space="preserve">
<style type="text/css">
	.st0{fill:#FFF8E3;}
	.st1{fill:none;stroke:#000000;stroke-miterlimit:10;}
	.st2{fill:none;}
	.st3{fill:none;stroke:#FF6C5F;stroke-width:0.5;stroke-miterlimit:10;}
	.st4{fill:none;stroke:#009A9A;stroke-miterlimit:10;}
	.st5{font-family:'MonotypeCorsiva';}
	.st6{font-size:17.8178px;}
</style>
<defs>
</defs>
<g id="XMLID_1_">
	<g>
		<polygon class="st0" points="39.31,0.248 76.206,71.144 38.611,115.574 0.245,71.344 		"/>
	</g>
	<g>
	</g>
</g>
<path class="st1" d="M43.823,87.102"/>
<g>
	<rect x="27.388" y="59.272" transform="matrix(1 -0.0027 0.0027 1 -0.188 0.102)" class="st2" width="21.678" height="22.866"/>
	<path class="st3" d="M36.11,61.307c-0.421,0.94-0.867,2.249-1.338,3.926l-1.285,4.534c-0.407,1.452-0.978,2.516-1.711,3.191
		c-0.739,0.681-1.546,1.023-2.42,1.025c-0.579,0.001-1.047-0.128-1.399-0.388c-0.354-0.26-0.532-0.546-0.533-0.86
		c0-0.145,0.052-0.272,0.155-0.383c0.104-0.11,0.224-0.166,0.357-0.166c0.196,0,0.408,0.118,0.636,0.355
		c0.309,0.318,0.549,0.521,0.723,0.607c0.245,0.122,0.465,0.182,0.662,0.181c0.209,0,0.389-0.048,0.54-0.141
		c0.248-0.151,0.466-0.389,0.65-0.711c0.185-0.323,0.564-1.396,1.14-3.221c0.483-1.521,0.951-3.102,1.405-4.739l0.75-2.649
		l-0.418-0.016c-0.922,0.002-1.685,0.226-2.286,0.671c-0.602,0.445-0.902,0.915-0.901,1.407c0.001,0.174,0.076,0.374,0.229,0.6
		c0.14,0.208,0.209,0.374,0.209,0.495c0.001,0.151-0.056,0.283-0.168,0.396c-0.112,0.113-0.247,0.17-0.404,0.171
		c-0.203,0-0.369-0.089-0.501-0.268c-0.131-0.179-0.196-0.442-0.197-0.79c-0.002-0.648,0.227-1.244,0.686-1.786
		c0.459-0.542,1.079-0.939,1.86-1.19c0.52-0.169,1.311-0.255,2.37-0.258C35.07,61.301,35.466,61.303,36.11,61.307z"/>
	<path class="st3" d="M46.541,71.154L46.43,71.65c-0.295,0.036-0.521,0.054-0.678,0.054c-0.25,0.001-0.58-0.019-0.992-0.058
		c-0.441-0.04-0.818-0.059-1.132-0.058c-0.25,0-0.508,0.042-0.773,0.124c0.233-0.668,0.502-1.597,0.808-2.784l0.662-2.614
		l-2.353,0.093c-0.413,0.024-0.837,0.057-1.272,0.099c-0.389,1.549-0.791,2.696-1.207,3.439c-0.415,0.744-0.892,1.292-1.428,1.644
		c-0.535,0.352-1.049,0.529-1.542,0.53c-0.481,0.001-0.895-0.114-1.237-0.345c-0.25-0.162-0.375-0.365-0.376-0.608
		c0-0.145,0.048-0.269,0.147-0.371c0.098-0.101,0.217-0.153,0.356-0.153c0.226,0,0.458,0.159,0.697,0.477
		c0.146,0.191,0.263,0.314,0.353,0.369c0.09,0.055,0.19,0.082,0.301,0.082c0.452-0.001,0.876-0.368,1.271-1.1
		s0.972-2.54,1.729-5.425l0.845-3.187c-1.16,0.003-2.031,0.197-2.613,0.581s-0.871,0.817-0.87,1.299
		c0,0.163,0.079,0.368,0.236,0.617c0.14,0.231,0.21,0.42,0.21,0.565c0.001,0.168-0.053,0.306-0.16,0.414
		c-0.106,0.107-0.241,0.161-0.403,0.162c-0.203,0-0.378-0.096-0.523-0.29c-0.146-0.194-0.218-0.477-0.219-0.848
		c-0.002-0.673,0.239-1.268,0.726-1.786c0.485-0.518,1.191-0.885,2.12-1.102c0.532-0.123,1.597-0.187,3.191-0.191
		c-0.426,0.848-0.902,2.346-1.429,4.493c1.535-0.004,2.745-0.063,3.629-0.175c0.497-1.684,0.937-2.857,1.317-3.523
		c0.382-0.665,0.811-1.146,1.289-1.443c0.478-0.297,1.011-0.446,1.603-0.448c0.511-0.001,0.904,0.095,1.18,0.288
		c0.276,0.194,0.415,0.415,0.416,0.665c0,0.145-0.049,0.264-0.147,0.357c-0.098,0.093-0.226,0.14-0.382,0.14
		c-0.202,0-0.432-0.144-0.687-0.433c-0.262-0.289-0.493-0.434-0.696-0.433c-0.435,0.001-0.861,0.405-1.282,1.212
		c-0.749,1.44-1.613,4.479-2.592,9.116c0.099,0.011,0.236,0.032,0.416,0.06c0.329,0.057,0.595,0.085,0.797,0.084
		C45.973,71.242,46.241,71.213,46.541,71.154z"/>
</g>
<path class="st4" d="M37.302,86.135L37.302,86.135L37.302,86.135c-2.669,0.651-5.42,0.962-8.167,0.923l0,0l2.437-3.703l0,0
	c-2.101-0.647-4.359,0.061-6.557,0.005c-2.198-0.056-4.777-1.552-4.484-3.73l0,0c2.369,0.478,4.982-0.811,6.044-2.983l0,0
	c-2.364-0.718-4.927,0.113-7.376-0.211c-2.45-0.324-4.964-3.016-3.546-5.04l0,0c2.789,0.516,5.811-0.486,7.739-2.566l0,0
	c-3.877,0.387-7.616-3.351-7.229-7.229l0,0c2.876,0.269,5.802,0,8.581-0.789l0,0c-2.444-0.508-4.113-3.351-3.365-5.732l0,0
	c1.54-0.647,3.721,0.712,4.807-0.558c1.353-1.583-1.57-4.216-0.368-5.918l0,0l6.048-0.42l0,0c-1.802-1.547-2.656-4.121-2.135-6.438
	l0,0c3.02,1.545,7.176-1.671,6.438-4.983l0,0c-1.662,0.046-3.233-1.362-3.369-3.019l0,0c1.861,0.259,3.073-1.888,3.553-3.704
	c0.48-1.816,1.117-4.028,2.946-4.455l0,0l0.032,6.707l0,0c1.158,0.439,2.571,0.089,3.389-0.84l0,0
	c1.121,0.477,0.741,2.232-0.143,3.07c-1.013,0.962-2.504,1.622-2.544,3.175c-0.026,1.017,0.648,1.899,1.566,2.337
	c1.656,0.79,3.431,0.268,5.088-0.248l0,0c0.493,1.106,0.602,2.378,0.306,3.552l0,0c-1.453,0.279-2.772,1.198-3.536,2.466l0,0
	c2.225,0.967,4.78,1.155,7.124,0.525l0,0c1.271,1.119,0.075,3.217-1.3,4.205s-3.149,2.104-2.99,3.79l0,0l8.034-0.054l0,0
	c0.614,1.987-0.342,4.343-2.168,5.34l0,0c2.502,0.913,5.497,0.286,7.424-1.552l0,0c1.061,2.603,0.028,5.891-2.331,7.419
	c-1.567,1.015-3.969,1.992-3.524,3.805l0,0c2.568,0.552,5.228,0.669,7.835,0.345l0,0c0.679,2.085-0.602,4.404-2.424,5.624
	c-1.821,1.22-4.062,1.595-6.227,1.941l0,0c1.385,1.446,3.339,2.331,5.339,2.418l0,0c-2.445,2.144-6,2.946-9.129,2.058l0,0
	c0.171,1.864,1.875,3.461,3.746,3.512l0,0c-2.471,2.04-9.044,1.92-9.044,1.92l0,0l-1.513,14.223l-0.168,0.2l26.045-30.9
	L39.524,12.497L7.014,71.085l28.9,31.733c-1.481-5.518,1.5-11.281,1.144-16.983"/>
<line class="st1" x1="35.578" y1="97.79" x2="35.578" y2="97.79"/>
<line class="st1" x1="32.573" y1="86.923" x2="32.573" y2="86.923"/>
</svg>